<mxfile host="app.diagrams.net" modified="2023-04-24T03:15:09.349Z" agent="Mozilla/5.0 (Windows NT 10.0; Win64; x64) AppleWebKit/537.36 (KHTML, like Gecko) Chrome/108.0.0.0 Safari/537.36" version="21.2.1" etag="f758Lh601ATCNsPwNmVo" type="github">
  <diagram name="第 1 页" id="kPsyVVF4NKJUlHxfcqTH">
    <mxGraphModel>
      <root>
        <mxCell id="0" />
        <mxCell id="1" parent="0" />
      </root>
    </mxGraphModel>
  </diagram>
</mxfile>
